<svg xmlns="http://www.w3.org/2000/svg" viewBox="0 0 1280 100" width="1280" height="100"><circle cx="20" cy="44" r="9" fill="none" stroke="#0b1330" stroke-width=".8" opacity=".35"/><line x1="6" y1="44" x2="34" y2="44" stroke="#0b1330" stroke-width=".7" opacity=".6"/><line x1="20" y1="30" x2="20" y2="58" stroke="#0b1330" stroke-width=".7" opacity=".6"/><circle cx="20" cy="44" r="2.6" fill="#0b1330"/><path d="M82.978515625 51.9296875Q82.978515625 50.712890625 82.787109375 50.015625Q82.595703125 49.318359375 81.92578125 48.9833984375Q81.255859375 48.6484375 79.84765625 48.5458984375Q78.439453125 48.443359375 75.9921875 48.40234375L68.390625 48.29296875Q65.57421875 48.251953125 63.865234375 47.951171875Q62.15625 47.650390625 61.28125 47.0009765625Q60.40625 46.3515625 60.1123046875 45.2578125Q59.818359375 44.1640625 59.818359375 42.5234375Q59.818359375 40.732421875 60.2216796875 39.5703125Q60.625 38.408203125 61.6845703125 37.751953125Q62.744140625 37.095703125 64.685546875 36.8291015625Q66.626953125 36.5625 69.703125 36.5625H75.5546875Q78.34375 36.5625 80.203125 36.740234375Q82.0625 36.91796875 83.15625 37.560546875Q84.25 38.203125 84.7216796875 39.556640625Q85.193359375 40.91015625 85.193359375 43.275390625H82.568359375Q82.568359375 41.443359375 82.2197265625 40.5068359375Q81.87109375 39.5703125 81.0712890625 39.228515625Q80.271484375 38.88671875 78.91796875 38.859375Q77.564453125 38.83203125 75.5546875 38.83203125H69.83984375Q67.392578125 38.83203125 65.9228515625 38.927734375Q64.453125 39.0234375 63.701171875 39.365234375Q62.94921875 39.70703125 62.6962890625 40.458984375Q62.443359375 41.2109375 62.443359375 42.5234375Q62.443359375 43.630859375 62.62109375 44.30078125Q62.798828125 44.970703125 63.4208984375 45.3193359375Q64.04296875 45.66796875 65.341796875 45.7978515625Q66.640625 45.927734375 68.8828125 45.955078125L77.03125 46.064453125Q79.90234375 46.10546875 81.6181640625 46.3994140625Q83.333984375 46.693359375 84.1884765625 47.349609375Q85.04296875 48.005859375 85.3232421875 49.1201171875Q85.603515625 50.234375 85.603515625 51.9296875Q85.603515625 53.775390625 85.2548828125 55.0263671875Q84.90625 56.27734375 83.908203125 57.029296875Q82.91015625 57.78125 81.0234375 58.109375Q79.13671875 58.4375 76.060546875 58.4375H69.662109375Q66.859375 58.4375 64.958984375 58.19140625Q63.05859375 57.9453125 61.9306640625 57.2001953125Q60.802734375 56.455078125 60.310546875 54.978515625Q59.818359375 53.501953125 59.818359375 51.041015625H62.443359375Q62.443359375 52.96875 62.7578125 54.021484375Q63.072265625 55.07421875 63.8583984375 55.5322265625Q64.64453125 55.990234375 66.0595703125 56.0791015625Q67.474609375 56.16796875 69.662109375 56.16796875H75.923828125Q78.37109375 56.16796875 79.79296875 56.0107421875Q81.21484375 55.853515625 81.8984375 55.4091796875Q82.58203125 54.96484375 82.7802734375 54.130859375Q82.978515625 53.296875 82.978515625 51.9296875ZM94.39015625 58.0V37.0H97.01515625V46.1875H100.501484375L114.07765625 37.0H118.01515625L103.14015625 47.28125L118.45265625 58.0H114.51515625L100.51515625 48.375H97.01515625V58.0ZM137.37015625 58.0V49.25L125.55765625000001 37.0H129.05765625L138.68265625 47.28125L148.30765625 37.0H151.80765625L139.99515625 49.25V58.0Z" fill="#0b1330" opacity="1"/><path d="M1117.2744140625 56.0V48.5H1118.2119140625V55.21875H1124.1494140625V56.0ZM1128.3994140625 56.0V48.5H1129.3369140625V56.0ZM1137.6494140625 56.0 1133.6064453125 48.5H1134.6806640625L1138.2744140625 55.3359375L1141.8681640625 48.5H1142.927734375L1138.8994140625 56.0ZM1147.2119140625 56.0V48.5H1154.5751953125V49.28125H1148.1494140625V51.78125H1154.306640625V52.5625H1148.1494140625V55.21875H1154.7119140625V56.0ZM1167.9287109375 56.0 1164.2421875 48.5H1165.3212890625L1168.5537109375 55.2041015625L1171.6005859375 48.5H1172.6943359375L1175.7412109375 55.2041015625L1178.6611328125 48.5H1179.740234375L1176.3662109375 56.0H1175.1162109375L1172.1474609375 49.4423828125L1169.1787109375 56.0ZM1183.4287109375 56.0 1187.8037109375 48.5H1189.0537109375L1193.4287109375 56.0H1192.3349609375L1191.3974609375 54.28125H1185.4599609375L1184.5224609375 56.0ZM1185.9287109375 53.5H1190.9287109375L1188.4287109375 49.125ZM1197.6787109375 56.0V48.5H1198.6162109375V55.21875H1204.5537109375V56.0ZM1208.8037109375 56.0V48.5H1209.7412109375V55.21875H1215.6787109375V56.0ZM1219.9482421875 56.0V48.5H1224.9677734375Q1226.06640625 48.5 1226.73779296875 48.607421875Q1227.4091796875 48.71484375 1227.755859375 48.96630859375Q1228.1025390625 49.2177734375 1228.224609375 49.64501953125Q1228.3466796875 50.072265625 1228.3466796875 50.70703125V50.90234375Q1228.3466796875 51.5078125 1228.22216796875 51.93017578125Q1228.09765625 52.3525390625 1227.7412109375 52.611328125Q1227.384765625 52.8701171875 1226.7109375 52.98974609375Q1226.037109375 53.109375 1224.9384765625 53.109375H1220.8857421875V56.0ZM1227.4091796875 50.70703125Q1227.4091796875 50.2431640625 1227.3212890625 49.96484375Q1227.2333984375 49.6865234375 1226.9697265625 49.544921875Q1226.7060546875 49.4033203125 1226.18359375 49.35693359375Q1225.6611328125 49.310546875 1224.787109375 49.310546875H1220.8857421875V52.298828125H1224.787109375Q1225.6611328125 52.298828125 1226.18359375 52.24267578125Q1226.7060546875 52.1865234375 1226.9697265625 52.03759765625Q1227.2333984375 51.888671875 1227.3212890625 51.61279296875Q1227.4091796875 51.3369140625 1227.4091796875 50.90234375ZM1232.025390625 56.0 1236.400390625 48.5H1237.650390625L1242.025390625 56.0H1240.931640625L1239.994140625 54.28125H1234.056640625L1233.119140625 56.0ZM1234.525390625 53.5H1239.525390625L1237.025390625 49.125ZM1246.294921875 56.0V48.5H1251.314453125Q1252.4130859375 48.5 1253.08447265625 48.607421875Q1253.755859375 48.71484375 1254.1025390625 48.96630859375Q1254.44921875 49.2177734375 1254.5712890625 49.64501953125Q1254.693359375 50.072265625 1254.693359375 50.70703125V50.90234375Q1254.693359375 51.5078125 1254.56884765625 51.93017578125Q1254.4443359375 52.3525390625 1254.087890625 52.611328125Q1253.7314453125 52.8701171875 1253.0576171875 52.98974609375Q1252.3837890625 53.109375 1251.28515625 53.109375H1247.232421875V56.0ZM1253.755859375 50.70703125Q1253.755859375 50.2431640625 1253.66796875 49.96484375Q1253.580078125 49.6865234375 1253.31640625 49.544921875Q1253.052734375 49.4033203125 1252.5302734375 49.35693359375Q1252.0078125 49.310546875 1251.1337890625 49.310546875H1247.232421875V52.298828125H1251.1337890625Q1252.0078125 52.298828125 1252.5302734375 52.24267578125Q1253.052734375 52.1865234375 1253.31640625 52.03759765625Q1253.580078125 51.888671875 1253.66796875 51.61279296875Q1253.755859375 51.3369140625 1253.755859375 50.90234375ZM1258.9970703125 56.0V48.5H1266.3603515625V49.28125H1259.9345703125V51.78125H1266.091796875V52.5625H1259.9345703125V55.21875H1266.4970703125V56.0ZM1270.7666015625 48.5H1275.7861328125Q1276.884765625 48.5 1277.55615234375 48.59765625Q1278.2275390625 48.6953125 1278.57421875 48.9345703125Q1278.9208984375 49.173828125 1279.04296875 49.5888671875Q1279.1650390625 50.00390625 1279.1650390625 50.638671875V50.833984375Q1279.1650390625 51.419921875 1279.02587890625 51.84228515625Q1278.88671875 52.2646484375 1278.4912109375 52.52587890625Q1278.095703125 52.787109375 1277.3193359375 52.89453125L1278.9501953125 56.0H1278.0126953125L1276.416015625 52.962890625Q1276.318359375 52.9677734375 1276.21337890625 52.9677734375Q1276.1083984375 52.9677734375 1275.99609375 52.9677734375H1271.7041015625V56.0H1270.7666015625ZM1271.7041015625 52.1572265625H1275.849609375Q1276.6845703125 52.1572265625 1277.16552734375 52.10107421875Q1277.646484375 52.044921875 1277.87353515625 51.9033203125Q1278.1005859375 51.76171875 1278.1640625 51.5029296875Q1278.2275390625 51.244140625 1278.2275390625 50.833984375V50.638671875Q1278.2275390625 50.1748046875 1278.1396484375 49.90625Q1278.0517578125 49.6376953125 1277.7880859375 49.5107421875Q1277.5244140625 49.3837890625 1277.001953125 49.34716796875Q1276.4794921875 49.310546875 1275.60546875 49.310546875H1271.7041015625Z" fill="#5b6488" opacity="1"/><line x1="58" y1="86" x2="1280" y2="86" stroke="#d3d9ec" stroke-width="1"/></svg>