<svg xmlns="http://www.w3.org/2000/svg" viewBox="0 0 1280 140" width="1280" height="140"><defs><linearGradient id="n" x1="0" y1="0" x2="0" y2="1"><stop offset="0" stop-color="#0b1330"/><stop offset="1" stop-color="#05070f"/></linearGradient><radialGradient id="glow"><stop offset="0" stop-color="#b6c4ff" stop-opacity=".5"/><stop offset=".35" stop-color="#b6c4ff" stop-opacity=".12"/><stop offset="1" stop-color="#b6c4ff" stop-opacity="0"/></radialGradient><radialGradient id="eng"><stop offset="0" stop-color="#a8eefc" stop-opacity=".9"/><stop offset="1" stop-color="#a8eefc" stop-opacity="0"/></radialGradient><linearGradient id="tail" x1="0" x2="1"><stop offset="0" stop-color="#cfdaf7" stop-opacity="0"/><stop offset="1" stop-color="#cfdaf7" stop-opacity=".7"/></linearGradient></defs><rect width="1280" height="140" fill="url(#n)"/><circle cx="1042.5" cy="13.4" r="0.95" fill="#cfdaf7" opacity="0.34"/><circle cx="329.4" cy="59.8" r="0.32" fill="#cfdaf7" opacity="0.13"/><circle cx="833.9" cy="108.1" r="0.43" fill="#cfdaf7" opacity="0.32"/><circle cx="484.9" cy="76.4" r="0.88" fill="#cfdaf7" opacity="0.16"/><circle cx="223.6" cy="59.4" r="0.98" fill="#cfdaf7" opacity="0.22"/><circle cx="1076.9" cy="24.5" r="0.83" fill="#cfdaf7" opacity="0.38"/><circle cx="467.3" cy="28.8" r="0.37" fill="#cfdaf7" opacity="0.13"/><circle cx="373.0" cy="83.5" r="0.91" fill="#cfdaf7" opacity="0.17"/><circle cx="1191.3" cy="23.4" r="0.65" fill="#cfdaf7" opacity="0.34"/><circle cx="1154.3" cy="127.7" r="0.97" fill="#cfdaf7" opacity="0.11"/><circle cx="1107.8" cy="0.2" r="0.62" fill="#cfdaf7" opacity="0.21"/><circle cx="553.3" cy="12.0" r="0.59" fill="#cfdaf7" opacity="0.32"/><circle cx="857.5" cy="0.9" r="0.86" fill="#cfdaf7" opacity="0.19"/><circle cx="690.8" cy="42.4" r="0.77" fill="#cfdaf7" opacity="0.26"/><circle cx="1119.3" cy="7.9" r="0.58" fill="#cfdaf7" opacity="0.43"/><circle cx="28.8" cy="15.1" r="0.80" fill="#cfdaf7" opacity="0.42"/><circle cx="107.8" cy="26.7" r="0.78" fill="#cfdaf7" opacity="0.26"/><circle cx="1186.4" cy="17.6" r="0.39" fill="#cfdaf7" opacity="0.15"/><circle cx="547.6" cy="33.6" r="0.64" fill="#cfdaf7" opacity="0.11"/><circle cx="741.3" cy="43.7" r="0.45" fill="#cfdaf7" opacity="0.13"/><circle cx="403.6" cy="41.7" r="0.98" fill="#cfdaf7" opacity="0.31"/><circle cx="1106.0" cy="66.9" r="0.36" fill="#cfdaf7" opacity="0.30"/><circle cx="945.8" cy="137.9" r="0.30" fill="#cfdaf7" opacity="0.09"/><circle cx="1007.5" cy="32.7" r="0.31" fill="#cfdaf7" opacity="0.11"/><circle cx="1033.3" cy="75.6" r="0.94" fill="#cfdaf7" opacity="0.35"/><circle cx="616.4" cy="48.7" r="0.54" fill="#cfdaf7" opacity="0.14"/><circle cx="1183.4" cy="57.1" r="0.63" fill="#cfdaf7" opacity="0.22"/><circle cx="698.6" cy="119.5" r="0.75" fill="#cfdaf7" opacity="0.25"/><circle cx="866.3" cy="107.7" r="0.73" fill="#cfdaf7" opacity="0.27"/><circle cx="245.0" cy="21.1" r="0.77" fill="#cfdaf7" opacity="0.33"/><circle cx="1067.6" cy="37.0" r="0.60" fill="#cfdaf7" opacity="0.08"/><circle cx="746.6" cy="78.5" r="0.48" fill="#cfdaf7" opacity="0.31"/><circle cx="1149.2" cy="60.0" r="0.73" fill="#cfdaf7" opacity="0.29"/><circle cx="715.4" cy="30.3" r="0.31" fill="#cfdaf7" opacity="0.43"/><circle cx="1097.1" cy="137.4" r="0.89" fill="#cfdaf7" opacity="0.12"/><circle cx="208.9" cy="57.2" r="0.76" fill="#cfdaf7" opacity="0.33"/><circle cx="866.7" cy="65.1" r="0.46" fill="#cfdaf7" opacity="0.29"/><circle cx="468.0" cy="93.5" r="0.41" fill="#cfdaf7" opacity="0.38"/><circle cx="85.3" cy="138.6" r="0.98" fill="#cfdaf7" opacity="0.32"/><circle cx="799.4" cy="28.6" r="0.73" fill="#cfdaf7" opacity="0.24"/><circle cx="764.1" cy="7.6" r="0.87" fill="#cfdaf7" opacity="0.31"/><circle cx="1049.5" cy="110.8" r="0.30" fill="#cfdaf7" opacity="0.17"/><circle cx="768.1" cy="50.4" r="0.40" fill="#cfdaf7" opacity="0.34"/><circle cx="1183.2" cy="64.1" r="0.64" fill="#cfdaf7" opacity="0.27"/><circle cx="980.4" cy="81.6" r="0.47" fill="#cfdaf7" opacity="0.20"/><circle cx="226.8" cy="51.3" r="0.54" fill="#cfdaf7" opacity="0.38"/><circle cx="276.8" cy="28.9" r="0.54" fill="#cfdaf7" opacity="0.26"/><circle cx="1082.1" cy="64.2" r="0.58" fill="#cfdaf7" opacity="0.36"/><circle cx="101.0" cy="58.7" r="0.71" fill="#cfdaf7" opacity="0.13"/><circle cx="354.7" cy="120.9" r="0.79" fill="#cfdaf7" opacity="0.20"/><circle cx="1222.1" cy="69.1" r="0.69" fill="#cfdaf7" opacity="0.32"/><circle cx="1140.2" cy="42.1" r="0.39" fill="#cfdaf7" opacity="0.22"/><circle cx="1035.5" cy="123.8" r="0.69" fill="#cfdaf7" opacity="0.25"/><circle cx="1215.1" cy="45.7" r="0.75" fill="#cfdaf7" opacity="0.13"/><circle cx="988.1" cy="134.5" r="0.70" fill="#cfdaf7" opacity="0.09"/><circle cx="1218.3" cy="125.0" r="0.74" fill="#cfdaf7" opacity="0.25"/><circle cx="363.8" cy="62.7" r="0.55" fill="#cfdaf7" opacity="0.11"/><circle cx="179.5" cy="84.0" r="0.53" fill="#cfdaf7" opacity="0.18"/><circle cx="513.6" cy="16.1" r="0.62" fill="#cfdaf7" opacity="0.40"/><circle cx="232.9" cy="97.5" r="0.65" fill="#cfdaf7" opacity="0.32"/><circle cx="836.2" cy="31.1" r="0.55" fill="#cfdaf7" opacity="0.43"/><circle cx="111.9" cy="42.4" r="0.99" fill="#cfdaf7" opacity="0.22"/><circle cx="795.0" cy="61.6" r="0.53" fill="#cfdaf7" opacity="0.27"/><circle cx="226.1" cy="8.9" r="0.53" fill="#cfdaf7" opacity="0.10"/><circle cx="550.0" cy="121.0" r="0.63" fill="#cfdaf7" opacity="0.08"/><circle cx="654.2" cy="33.8" r="0.41" fill="#cfdaf7" opacity="0.42"/><circle cx="713.2" cy="136.2" r="0.44" fill="#cfdaf7" opacity="0.34"/><circle cx="443.9" cy="83.9" r="0.33" fill="#cfdaf7" opacity="0.12"/><circle cx="211.0" cy="76.3" r="0.82" fill="#cfdaf7" opacity="0.10"/><circle cx="438.1" cy="134.4" r="0.67" fill="#cfdaf7" opacity="0.23"/><circle cx="1256.3" cy="102.6" r="0.60" fill="#cfdaf7" opacity="0.21"/><circle cx="959.4" cy="75.2" r="0.42" fill="#cfdaf7" opacity="0.21"/><circle cx="1074.4" cy="25.4" r="0.78" fill="#cfdaf7" opacity="0.39"/><circle cx="450.7" cy="22.4" r="0.90" fill="#cfdaf7" opacity="0.08"/><circle cx="939.2" cy="91.5" r="0.45" fill="#cfdaf7" opacity="0.17"/><circle cx="385.9" cy="76.0" r="0.64" fill="#cfdaf7" opacity="0.41"/><circle cx="705.3" cy="88.8" r="0.85" fill="#cfdaf7" opacity="0.14"/><circle cx="1011.9" cy="12.2" r="0.86" fill="#cfdaf7" opacity="0.11"/><circle cx="336.3" cy="3.2" r="0.42" fill="#cfdaf7" opacity="0.19"/><circle cx="111.0" cy="121.3" r="0.77" fill="#cfdaf7" opacity="0.19"/><circle cx="1151.2" cy="27.3" r="0.40" fill="#cfdaf7" opacity="0.30"/><circle cx="110.5" cy="120.6" r="0.62" fill="#cfdaf7" opacity="0.22"/><circle cx="821.9" cy="25.1" r="0.94" fill="#cfdaf7" opacity="0.10"/><circle cx="570.1" cy="98.1" r="0.32" fill="#cfdaf7" opacity="0.43"/><circle cx="698.1" cy="118.1" r="0.57" fill="#cfdaf7" opacity="0.23"/><circle cx="686.0" cy="135.4" r="0.64" fill="#cfdaf7" opacity="0.33"/><circle cx="554.5" cy="38.0" r="0.92" fill="#cfdaf7" opacity="0.42"/><circle cx="12.9" cy="139.0" r="0.98" fill="#cfdaf7" opacity="0.25"/><circle cx="350.5" cy="91.4" r="0.94" fill="#cfdaf7" opacity="0.40"/><circle cx="1028.4" cy="120.7" r="0.67" fill="#cfdaf7" opacity="0.12"/><circle cx="1170.6" cy="52.1" r="0.60" fill="#cfdaf7" opacity="0.23"/><circle cx="267.2" cy="126.9" r="0.32" fill="#cfdaf7" opacity="0.24"/><circle cx="63.6" cy="100.0" r="0.31" fill="#cfdaf7" opacity="0.37"/><circle cx="744.7" cy="63.6" r="0.89" fill="#cfdaf7" opacity="0.24"/><circle cx="435.2" cy="105.4" r="0.42" fill="#cfdaf7" opacity="0.17"/><circle cx="286.8" cy="24.4" r="0.71" fill="#cfdaf7" opacity="0.16"/><circle cx="665.9" cy="77.7" r="0.64" fill="#cfdaf7" opacity="0.28"/><circle cx="303.5" cy="62.3" r="0.84" fill="#cfdaf7" opacity="0.39"/><circle cx="1092.2" cy="3.6" r="0.81" fill="#cfdaf7" opacity="0.38"/><circle cx="196.3" cy="65.4" r="0.73" fill="#cfdaf7" opacity="0.25"/><circle cx="396.6" cy="25.7" r="0.36" fill="#cfdaf7" opacity="0.30"/><circle cx="458.5" cy="48.3" r="0.80" fill="#cfdaf7" opacity="0.15"/><circle cx="381.6" cy="12.7" r="0.76" fill="#cfdaf7" opacity="0.15"/><circle cx="963.8" cy="104.6" r="0.91" fill="#cfdaf7" opacity="0.18"/><circle cx="965.5" cy="103.8" r="0.42" fill="#cfdaf7" opacity="0.37"/><circle cx="408.8" cy="120.0" r="0.66" fill="#cfdaf7" opacity="0.11"/><circle cx="741.2" cy="138.9" r="0.74" fill="#cfdaf7" opacity="0.40"/><circle cx="517.3" cy="94.1" r="0.45" fill="#cfdaf7" opacity="0.32"/><circle cx="1151.5" cy="28.3" r="0.95" fill="#cfdaf7" opacity="0.33"/><circle cx="160.1" cy="57.2" r="0.51" fill="#cfdaf7" opacity="0.24"/><circle cx="1123.7" cy="110.4" r="0.73" fill="#cfdaf7" opacity="0.24"/><circle cx="351.9" cy="77.1" r="0.34" fill="#cfdaf7" opacity="0.42"/><circle cx="641.0" cy="99.1" r="0.36" fill="#cfdaf7" opacity="0.14"/><circle cx="833.0" cy="130.0" r="0.60" fill="#cfdaf7" opacity="0.15"/><circle cx="986.7" cy="108.3" r="0.36" fill="#cfdaf7" opacity="0.31"/><circle cx="581.9" cy="24.2" r="0.95" fill="#cfdaf7" opacity="0.29"/><circle cx="831.8" cy="108.5" r="0.83" fill="#cfdaf7" opacity="0.28"/><circle cx="403.7" cy="66.9" r="0.66" fill="#cfdaf7" opacity="0.18"/><circle cx="203.0" cy="5.8" r="0.80" fill="#cfdaf7" opacity="0.17"/><circle cx="237.3" cy="33.2" r="0.93" fill="#cfdaf7" opacity="0.13"/><circle cx="918.4" cy="55.6" r="0.95" fill="#cfdaf7" opacity="0.35"/><circle cx="556.2" cy="88.3" r="0.42" fill="#cfdaf7" opacity="0.37"/><circle cx="153.5" cy="72.1" r="0.93" fill="#cfdaf7" opacity="0.19"/><circle cx="253.3" cy="128.8" r="0.61" fill="#cfdaf7" opacity="0.31"/><circle cx="1271.4" cy="111.8" r="0.40" fill="#cfdaf7" opacity="0.43"/><circle cx="1024.1" cy="74.8" r="0.40" fill="#cfdaf7" opacity="0.34"/><circle cx="135.9" cy="27.3" r="0.78" fill="#cfdaf7" opacity="0.35"/><circle cx="1179.4" cy="29.6" r="0.47" fill="#cfdaf7" opacity="0.28"/><circle cx="819.1" cy="126.5" r="0.65" fill="#cfdaf7" opacity="0.32"/><circle cx="1016.0" cy="64.4" r="0.70" fill="#cfdaf7" opacity="0.12"/><circle cx="772.6" cy="4.7" r="0.56" fill="#cfdaf7" opacity="0.26"/><circle cx="509.7" cy="125.7" r="9.5" fill="url(#glow)"/><circle cx="509.7" cy="125.7" r="1.35" fill="#f6f7ff"/><circle cx="923.6" cy="133.7" r="9.4" fill="url(#glow)"/><line x1="911.5" y1="133.7" x2="935.8" y2="133.7" stroke="#f6f7ff" stroke-width=".5" opacity=".45"/><line x1="923.6" y1="121.6" x2="923.6" y2="145.8" stroke="#f6f7ff" stroke-width=".5" opacity=".45"/><circle cx="923.6" cy="133.7" r="1.35" fill="#f6f7ff"/><circle cx="1136.0" cy="70.8" r="1.00" fill="#b6c4ff" opacity="0.60"/><circle cx="1133.8" cy="65.5" r="0.99" fill="#b6c4ff" opacity="0.59"/><circle cx="1136.1" cy="66.5" r="0.98" fill="#b6c4ff" opacity="0.59"/><circle cx="1137.8" cy="69.4" r="0.97" fill="#b6c4ff" opacity="0.58"/><circle cx="1144.4" cy="64.9" r="0.97" fill="#b6c4ff" opacity="0.57"/><circle cx="1141.0" cy="71.6" r="0.96" fill="#b6c4ff" opacity="0.57"/><circle cx="1141.8" cy="70.3" r="0.95" fill="#b6c4ff" opacity="0.56"/><circle cx="1134.1" cy="75.0" r="0.94" fill="#b6c4ff" opacity="0.56"/><circle cx="1143.9" cy="70.1" r="0.93" fill="#b6c4ff" opacity="0.55"/><circle cx="1139.8" cy="72.9" r="0.92" fill="#b6c4ff" opacity="0.54"/><circle cx="1147.4" cy="69.9" r="0.91" fill="#b6c4ff" opacity="0.54"/><circle cx="1147.9" cy="70.8" r="0.91" fill="#b6c4ff" opacity="0.53"/><circle cx="1145.1" cy="74.4" r="0.90" fill="#b6c4ff" opacity="0.52"/><circle cx="1141.1" cy="73.6" r="0.89" fill="#b6c4ff" opacity="0.52"/><circle cx="1143.9" cy="72.7" r="0.88" fill="#b6c4ff" opacity="0.51"/><circle cx="1146.8" cy="74.2" r="0.87" fill="#b6c4ff" opacity="0.50"/><circle cx="1149.7" cy="75.8" r="0.86" fill="#b6c4ff" opacity="0.50"/><circle cx="1148.1" cy="75.2" r="0.85" fill="#b6c4ff" opacity="0.49"/><circle cx="1144.5" cy="75.1" r="0.85" fill="#b6c4ff" opacity="0.48"/><circle cx="1147.1" cy="78.0" r="0.84" fill="#b6c4ff" opacity="0.48"/><circle cx="1146.9" cy="77.8" r="0.83" fill="#b6c4ff" opacity="0.47"/><circle cx="1148.5" cy="75.5" r="0.82" fill="#b6c4ff" opacity="0.46"/><circle cx="1146.1" cy="76.9" r="0.81" fill="#b6c4ff" opacity="0.46"/><circle cx="1144.6" cy="75.4" r="0.80" fill="#b6c4ff" opacity="0.45"/><circle cx="1149.3" cy="80.1" r="0.79" fill="#b6c4ff" opacity="0.45"/><circle cx="1150.8" cy="77.9" r="0.79" fill="#b6c4ff" opacity="0.44"/><circle cx="1143.5" cy="81.5" r="0.78" fill="#b6c4ff" opacity="0.43"/><circle cx="1140.2" cy="80.0" r="0.77" fill="#b6c4ff" opacity="0.43"/><circle cx="1143.3" cy="77.8" r="0.76" fill="#b6c4ff" opacity="0.42"/><circle cx="1138.2" cy="83.0" r="0.75" fill="#b6c4ff" opacity="0.41"/><circle cx="1140.5" cy="79.4" r="0.74" fill="#b6c4ff" opacity="0.41"/><circle cx="1138.4" cy="78.9" r="0.73" fill="#b6c4ff" opacity="0.40"/><circle cx="1137.1" cy="88.4" r="0.73" fill="#b6c4ff" opacity="0.39"/><circle cx="1136.2" cy="85.0" r="0.72" fill="#b6c4ff" opacity="0.39"/><circle cx="1131.3" cy="82.2" r="0.71" fill="#b6c4ff" opacity="0.38"/><circle cx="1140.1" cy="85.4" r="0.70" fill="#b6c4ff" opacity="0.38"/><circle cx="1131.3" cy="86.3" r="0.69" fill="#b6c4ff" opacity="0.37"/><circle cx="1134.0" cy="86.1" r="0.68" fill="#b6c4ff" opacity="0.36"/><circle cx="1128.4" cy="87.0" r="0.67" fill="#b6c4ff" opacity="0.36"/><circle cx="1132.1" cy="86.1" r="0.67" fill="#b6c4ff" opacity="0.35"/><circle cx="1122.4" cy="89.2" r="0.66" fill="#b6c4ff" opacity="0.34"/><circle cx="1124.9" cy="88.1" r="0.65" fill="#b6c4ff" opacity="0.34"/><circle cx="1119.1" cy="89.0" r="0.64" fill="#b6c4ff" opacity="0.33"/><circle cx="1121.4" cy="89.7" r="0.63" fill="#b6c4ff" opacity="0.32"/><circle cx="1122.0" cy="86.2" r="0.62" fill="#b6c4ff" opacity="0.32"/><circle cx="1116.9" cy="88.7" r="0.61" fill="#b6c4ff" opacity="0.31"/><circle cx="1112.6" cy="90.0" r="0.61" fill="#b6c4ff" opacity="0.30"/><circle cx="1113.0" cy="88.7" r="0.60" fill="#b6c4ff" opacity="0.30"/><circle cx="1110.5" cy="87.1" r="0.59" fill="#b6c4ff" opacity="0.29"/><circle cx="1109.5" cy="90.9" r="0.58" fill="#b6c4ff" opacity="0.29"/><circle cx="1105.1" cy="91.8" r="0.57" fill="#b6c4ff" opacity="0.28"/><circle cx="1104.0" cy="86.5" r="0.56" fill="#b6c4ff" opacity="0.27"/><circle cx="1098.0" cy="86.7" r="0.55" fill="#b6c4ff" opacity="0.27"/><circle cx="1100.2" cy="88.1" r="0.55" fill="#b6c4ff" opacity="0.26"/><circle cx="1097.0" cy="88.0" r="0.54" fill="#b6c4ff" opacity="0.25"/><circle cx="1090.5" cy="87.0" r="0.53" fill="#b6c4ff" opacity="0.25"/><circle cx="1088.9" cy="84.4" r="0.52" fill="#b6c4ff" opacity="0.24"/><circle cx="1084.3" cy="87.3" r="0.51" fill="#b6c4ff" opacity="0.23"/><circle cx="1084.1" cy="81.5" r="0.50" fill="#b6c4ff" opacity="0.23"/><circle cx="1079.6" cy="84.2" r="0.49" fill="#b6c4ff" opacity="0.22"/><circle cx="1081.7" cy="83.2" r="0.49" fill="#b6c4ff" opacity="0.21"/><circle cx="1079.3" cy="81.5" r="0.48" fill="#b6c4ff" opacity="0.21"/><circle cx="1079.6" cy="80.1" r="0.47" fill="#b6c4ff" opacity="0.20"/><circle cx="1070.8" cy="80.4" r="0.46" fill="#b6c4ff" opacity="0.19"/><circle cx="1074.4" cy="80.4" r="0.45" fill="#b6c4ff" opacity="0.19"/><circle cx="1073.2" cy="76.0" r="0.44" fill="#b6c4ff" opacity="0.18"/><circle cx="1069.8" cy="78.8" r="0.43" fill="#b6c4ff" opacity="0.18"/><circle cx="1069.7" cy="70.7" r="0.43" fill="#b6c4ff" opacity="0.17"/><circle cx="1068.3" cy="71.5" r="0.42" fill="#b6c4ff" opacity="0.16"/><circle cx="1064.8" cy="70.6" r="0.41" fill="#b6c4ff" opacity="0.16"/><circle cx="1129.8" cy="70.4" r="1.00" fill="#b6c4ff" opacity="0.60"/><circle cx="1130.8" cy="67.3" r="0.99" fill="#b6c4ff" opacity="0.59"/><circle cx="1124.4" cy="74.2" r="0.98" fill="#b6c4ff" opacity="0.59"/><circle cx="1118.1" cy="67.5" r="0.97" fill="#b6c4ff" opacity="0.58"/><circle cx="1121.0" cy="69.2" r="0.97" fill="#b6c4ff" opacity="0.57"/><circle cx="1121.0" cy="67.8" r="0.96" fill="#b6c4ff" opacity="0.57"/><circle cx="1126.3" cy="71.2" r="0.95" fill="#b6c4ff" opacity="0.56"/><circle cx="1119.4" cy="67.9" r="0.94" fill="#b6c4ff" opacity="0.56"/><circle cx="1122.2" cy="67.1" r="0.93" fill="#b6c4ff" opacity="0.55"/><circle cx="1114.3" cy="67.7" r="0.92" fill="#b6c4ff" opacity="0.54"/><circle cx="1116.2" cy="69.3" r="0.91" fill="#b6c4ff" opacity="0.54"/><circle cx="1116.6" cy="71.7" r="0.91" fill="#b6c4ff" opacity="0.53"/><circle cx="1115.7" cy="67.4" r="0.90" fill="#b6c4ff" opacity="0.52"/><circle cx="1112.0" cy="68.1" r="0.89" fill="#b6c4ff" opacity="0.52"/><circle cx="1113.4" cy="64.9" r="0.88" fill="#b6c4ff" opacity="0.51"/><circle cx="1109.9" cy="66.0" r="0.87" fill="#b6c4ff" opacity="0.50"/><circle cx="1113.3" cy="66.2" r="0.86" fill="#b6c4ff" opacity="0.50"/><circle cx="1112.8" cy="65.5" r="0.85" fill="#b6c4ff" opacity="0.49"/><circle cx="1113.4" cy="66.0" r="0.85" fill="#b6c4ff" opacity="0.48"/><circle cx="1113.2" cy="66.2" r="0.84" fill="#b6c4ff" opacity="0.48"/><circle cx="1115.1" cy="62.8" r="0.83" fill="#b6c4ff" opacity="0.47"/><circle cx="1114.8" cy="64.8" r="0.82" fill="#b6c4ff" opacity="0.46"/><circle cx="1115.3" cy="62.8" r="0.81" fill="#b6c4ff" opacity="0.46"/><circle cx="1112.6" cy="61.2" r="0.80" fill="#b6c4ff" opacity="0.45"/><circle cx="1123.4" cy="61.6" r="0.79" fill="#b6c4ff" opacity="0.45"/><circle cx="1115.9" cy="62.3" r="0.79" fill="#b6c4ff" opacity="0.44"/><circle cx="1116.1" cy="57.5" r="0.78" fill="#b6c4ff" opacity="0.43"/><circle cx="1108.1" cy="58.4" r="0.77" fill="#b6c4ff" opacity="0.43"/><circle cx="1113.7" cy="57.4" r="0.76" fill="#b6c4ff" opacity="0.42"/><circle cx="1123.8" cy="56.6" r="0.75" fill="#b6c4ff" opacity="0.41"/><circle cx="1117.4" cy="56.4" r="0.74" fill="#b6c4ff" opacity="0.41"/><circle cx="1128.2" cy="55.6" r="0.73" fill="#b6c4ff" opacity="0.40"/><circle cx="1120.9" cy="54.6" r="0.73" fill="#b6c4ff" opacity="0.39"/><circle cx="1118.0" cy="57.7" r="0.72" fill="#b6c4ff" opacity="0.39"/><circle cx="1124.5" cy="55.2" r="0.71" fill="#b6c4ff" opacity="0.38"/><circle cx="1121.1" cy="52.9" r="0.70" fill="#b6c4ff" opacity="0.38"/><circle cx="1123.8" cy="54.5" r="0.69" fill="#b6c4ff" opacity="0.37"/><circle cx="1126.7" cy="53.2" r="0.68" fill="#b6c4ff" opacity="0.36"/><circle cx="1127.5" cy="52.7" r="0.67" fill="#b6c4ff" opacity="0.36"/><circle cx="1126.8" cy="51.8" r="0.67" fill="#b6c4ff" opacity="0.35"/><circle cx="1129.0" cy="50.4" r="0.66" fill="#b6c4ff" opacity="0.34"/><circle cx="1137.6" cy="52.9" r="0.65" fill="#b6c4ff" opacity="0.34"/><circle cx="1139.1" cy="51.0" r="0.64" fill="#b6c4ff" opacity="0.33"/><circle cx="1140.4" cy="50.7" r="0.63" fill="#b6c4ff" opacity="0.32"/><circle cx="1138.1" cy="53.2" r="0.62" fill="#b6c4ff" opacity="0.32"/><circle cx="1149.9" cy="52.6" r="0.61" fill="#b6c4ff" opacity="0.31"/><circle cx="1147.0" cy="50.0" r="0.61" fill="#b6c4ff" opacity="0.30"/><circle cx="1147.1" cy="52.1" r="0.60" fill="#b6c4ff" opacity="0.30"/><circle cx="1150.5" cy="51.8" r="0.59" fill="#b6c4ff" opacity="0.29"/><circle cx="1152.5" cy="53.7" r="0.58" fill="#b6c4ff" opacity="0.29"/><circle cx="1155.5" cy="48.6" r="0.57" fill="#b6c4ff" opacity="0.28"/><circle cx="1158.4" cy="55.6" r="0.56" fill="#b6c4ff" opacity="0.27"/><circle cx="1168.2" cy="54.1" r="0.55" fill="#b6c4ff" opacity="0.27"/><circle cx="1158.7" cy="52.3" r="0.55" fill="#b6c4ff" opacity="0.26"/><circle cx="1164.8" cy="57.6" r="0.54" fill="#b6c4ff" opacity="0.25"/><circle cx="1167.7" cy="59.4" r="0.53" fill="#b6c4ff" opacity="0.25"/><circle cx="1171.6" cy="54.0" r="0.52" fill="#b6c4ff" opacity="0.24"/><circle cx="1170.7" cy="55.8" r="0.51" fill="#b6c4ff" opacity="0.23"/><circle cx="1169.4" cy="54.5" r="0.50" fill="#b6c4ff" opacity="0.23"/><circle cx="1175.1" cy="59.7" r="0.49" fill="#b6c4ff" opacity="0.22"/><circle cx="1182.7" cy="56.2" r="0.49" fill="#b6c4ff" opacity="0.21"/><circle cx="1182.2" cy="56.2" r="0.48" fill="#b6c4ff" opacity="0.21"/><circle cx="1185.8" cy="54.8" r="0.47" fill="#b6c4ff" opacity="0.20"/><circle cx="1184.1" cy="59.8" r="0.46" fill="#b6c4ff" opacity="0.19"/><circle cx="1187.7" cy="62.5" r="0.45" fill="#b6c4ff" opacity="0.19"/><circle cx="1191.3" cy="60.8" r="0.44" fill="#b6c4ff" opacity="0.18"/><circle cx="1189.3" cy="63.8" r="0.43" fill="#b6c4ff" opacity="0.18"/><circle cx="1193.0" cy="66.9" r="0.43" fill="#b6c4ff" opacity="0.17"/><circle cx="1191.0" cy="64.6" r="0.42" fill="#b6c4ff" opacity="0.16"/><circle cx="1189.7" cy="68.1" r="0.41" fill="#b6c4ff" opacity="0.16"/><circle cx="1130" cy="70.0" r="30.0" fill="url(#glow)"/><circle cx="1130" cy="70.0" r="1.4" fill="#f6f7ff"/><rect x=".5" y=".5" width="1279" height="139" rx="8" fill="none" stroke="#1b2140"/><circle cx="58.0" cy="60.0" r="9.8" fill="url(#glow)"/><line x1="45.4" y1="60.0" x2="70.6" y2="60.0" stroke="#f6f7ff" stroke-width=".5" opacity=".45"/><line x1="58.0" y1="47.4" x2="58.0" y2="72.6" stroke="#f6f7ff" stroke-width=".5" opacity=".45"/><circle cx="58.0" cy="60.0" r="1.40" fill="#f6f7ff"/><path d="M58.744140625 95.767578125Q58.744140625 94.822265625 58.6796875 94.2099609375Q58.615234375 93.59765625 58.440673828125 93.2431640625Q58.26611328125 92.888671875 57.935791015625 92.724853515625Q57.60546875 92.56103515625 57.0791015625 92.515380859375Q56.552734375 92.4697265625 55.78466796875 92.4697265625H54.67822265625Q53.91015625 92.4697265625 53.3837890625 92.515380859375Q52.857421875 92.56103515625 52.527099609375 92.724853515625Q52.19677734375 92.888671875 52.022216796875 93.2431640625Q51.84765625 93.59765625 51.783203125 94.2099609375Q51.71875 94.822265625 51.71875 95.767578125V95.982421875Q51.71875 96.8955078125 51.783203125 97.4970703125Q51.84765625 98.0986328125 52.022216796875 98.45849609375Q52.19677734375 98.818359375 52.527099609375 98.99560546875Q52.857421875 99.1728515625 53.3837890625 99.2265625Q53.91015625 99.2802734375 54.67822265625 99.2802734375H55.78466796875Q56.552734375 99.2802734375 57.0791015625 99.2265625Q57.60546875 99.1728515625 57.935791015625 98.99560546875Q58.26611328125 98.818359375 58.440673828125 98.45849609375Q58.615234375 98.0986328125 58.6796875 97.4970703125Q58.744140625 96.8955078125 58.744140625 95.982421875ZM50.6875 95.982421875V95.767578125Q50.6875 94.671875 50.794921875 93.927978515625Q50.90234375 93.18408203125 51.16552734375 92.716796875Q51.4287109375 92.24951171875 51.882568359375 92.00244140625Q52.33642578125 91.75537109375 53.02392578125 91.666748046875Q53.71142578125 91.578125 54.67822265625 91.578125H55.78466796875Q56.75146484375 91.578125 57.43896484375 91.666748046875Q58.12646484375 91.75537109375 58.580322265625 92.00244140625Q59.0341796875 92.24951171875 59.29736328125 92.716796875Q59.560546875 93.18408203125 59.66796875 93.927978515625Q59.775390625 94.671875 59.775390625 95.767578125V95.982421875Q59.775390625 97.30908203125 59.600830078125 98.13623046875Q59.42626953125 98.96337890625 58.988525390625 99.40380859375Q58.55078125 99.84423828125 57.77197265625 100.008056640625Q56.9931640625 100.171875 55.78466796875 100.171875H54.67822265625Q53.4697265625 100.171875 52.69091796875 100.008056640625Q51.912109375 99.84423828125 51.474365234375 99.40380859375Q51.03662109375 98.96337890625 50.862060546875 98.13623046875Q50.6875 97.30908203125 50.6875 95.982421875ZM68.34443359375 100.171875Q67.1359375 100.171875 66.3947265625 100.04296875Q65.653515625 99.9140625 65.26142578125 99.61865234375Q64.8693359375 99.3232421875 64.732373046875 98.831787109375Q64.59541015625 98.34033203125 64.59541015625 97.615234375V93.9736328125Q64.59541015625 93.27001953125 64.753857421875 92.805419921875Q64.9123046875 92.3408203125 65.328564453125 92.072265625Q65.74482421875 91.8037109375 66.50751953125 91.69091796875Q67.27021484375 91.578125 68.4787109375 91.578125H69.75703125Q70.94404296875 91.578125 71.677197265625 91.682861328125Q72.4103515625 91.78759765625 72.7970703125 92.04541015625Q73.1837890625 92.30322265625 73.320751953125 92.759765625Q73.45771484375 93.21630859375 73.45771484375 93.919921875H72.42646484375Q72.42646484375 93.404296875 72.348583984375 93.10888671875Q72.270703125 92.8134765625 72.004833984375 92.67919921875Q71.73896484375 92.544921875 71.19111328125 92.50732421875Q70.64326171875 92.4697265625 69.7033203125 92.4697265625H68.532421875Q67.57099609375 92.4697265625 66.993603515625 92.515380859375Q66.4162109375 92.56103515625 66.12080078125 92.7060546875Q65.825390625 92.85107421875 65.726025390625 93.154541015625Q65.62666015625 93.4580078125 65.62666015625 93.9736328125V95.853515625Q66.1154296875 95.28955078125 67.4044921875 95.28955078125H70.2404296875Q71.36298828125 95.28955078125 72.03974609375 95.415771484375Q72.71650390625 95.5419921875 73.062939453125 95.818603515625Q73.409375 96.09521484375 73.524853515625 96.538330078125Q73.64033203125 96.9814453125 73.64033203125 97.615234375Q73.64033203125 98.34033203125 73.503369140625 98.831787109375Q73.36640625 99.3232421875 72.97431640625 99.61865234375Q72.5822265625 99.9140625 71.841015625 100.04296875Q71.0998046875 100.171875 69.89130859375 100.171875ZM72.60908203125 97.615234375Q72.60908203125 97.13720703125 72.53388671875 96.84716796875Q72.45869140625 96.55712890625 72.1955078125 96.40673828125Q71.93232421875 96.25634765625 71.3791015625 96.205322265625Q70.82587890625 96.154296875 69.864453125 96.154296875H68.3712890625Q67.40986328125 96.154296875 66.856640625 96.205322265625Q66.30341796875 96.25634765625 66.040234375 96.40673828125Q65.77705078125 96.55712890625 65.70185546875 96.84716796875Q65.62666015625 97.13720703125 65.62666015625 97.615234375Q65.62666015625 98.15234375 65.704541015625 98.47998046875Q65.782421875 98.8076171875 66.0509765625 98.982177734375Q66.31953125 99.15673828125 66.878125 99.218505859375Q67.43671875 99.2802734375 68.39814453125 99.2802734375H69.83759765625Q70.7990234375 99.2802734375 71.3576171875 99.218505859375Q71.9162109375 99.15673828125 72.184765625 98.982177734375Q72.4533203125 98.8076171875 72.531201171875 98.47998046875Q72.60908203125 98.15234375 72.60908203125 97.615234375Z" fill="#a8eefc" opacity="1"/><path d="M112.87109375 70.0V47.5H129.5703125Q132.8662109375 47.5 134.990234375 47.8955078125Q137.1142578125 48.291015625 138.30810546875 49.42626953125Q139.501953125 50.5615234375 139.97802734375 52.7294921875Q140.4541015625 54.8974609375 140.4541015625 58.45703125V59.04296875Q140.4541015625 62.4853515625 139.97802734375 64.64599609375Q139.501953125 66.806640625 138.30810546875 67.97119140625Q137.1142578125 69.1357421875 134.990234375 69.56787109375Q132.8662109375 70.0 129.5703125 70.0ZM115.68359375 67.568359375H129.5703125Q132.1923828125 67.568359375 133.7890625 67.3193359375Q135.3857421875 67.0703125 136.220703125 66.2353515625Q137.0556640625 65.400390625 137.3486328125 63.6865234375Q137.6416015625 61.97265625 137.6416015625 59.04296875V58.45703125Q137.6416015625 56.025390625 137.4658203125 54.443359375Q137.2900390625 52.861328125 136.81396484375 51.94580078125Q136.337890625 51.0302734375 135.43701171875 50.59814453125Q134.5361328125 50.166015625 133.1005859375 50.048828125Q131.6650390625 49.931640625 129.5703125 49.931640625H115.68359375ZM149.3416015625 70.0V47.5H171.4314453125V49.84375H152.1541015625V57.34375H170.62578125V59.6875H152.1541015625V67.65625H171.8416015625V70.0ZM203.741796875 63.49609375Q203.741796875 62.1923828125 203.53671875 61.4453125Q203.331640625 60.6982421875 202.6138671875 60.33935546875Q201.89609375 59.98046875 200.3873046875 59.87060546875Q198.878515625 59.7607421875 196.2564453125 59.716796875L188.1119140625 59.599609375Q185.0943359375 59.5556640625 183.26328125 59.2333984375Q181.4322265625 58.9111328125 180.4947265625 58.21533203125Q179.5572265625 57.51953125 179.24228515625 56.34765625Q178.92734375 55.17578125 178.92734375 53.41796875Q178.92734375 51.4990234375 179.35947265625 50.25390625Q179.7916015625 49.0087890625 180.92685546875 48.3056640625Q182.062109375 47.6025390625 184.1421875 47.31689453125Q186.222265625 47.03125 189.5181640625 47.03125H195.7876953125Q198.7759765625 47.03125 200.7681640625 47.2216796875Q202.7603515625 47.412109375 203.9322265625 48.1005859375Q205.1041015625 48.7890625 205.60947265625 50.2392578125Q206.11484375 51.689453125 206.11484375 54.2236328125H203.30234375Q203.30234375 52.2607421875 202.92880859375 51.25732421875Q202.5552734375 50.25390625 201.69833984375 49.8876953125Q200.84140625 49.521484375 199.3912109375 49.4921875Q197.941015625 49.462890625 195.7876953125 49.462890625H189.6646484375Q187.042578125 49.462890625 185.46787109375 49.5654296875Q183.8931640625 49.66796875 183.0875 50.0341796875Q182.2818359375 50.400390625 182.01083984375 51.2060546875Q181.73984375 52.01171875 181.73984375 53.41796875Q181.73984375 54.6044921875 181.9302734375 55.322265625Q182.120703125 56.0400390625 182.78720703125 56.41357421875Q183.4537109375 56.787109375 184.8453125 56.92626953125Q186.2369140625 57.0654296875 188.6392578125 57.0947265625L197.3697265625 57.2119140625Q200.4458984375 57.255859375 202.28427734375 57.57080078125Q204.12265625 57.8857421875 205.03818359375 58.5888671875Q205.9537109375 59.2919921875 206.25400390625 60.48583984375Q206.554296875 61.6796875 206.554296875 63.49609375Q206.554296875 65.4736328125 206.18076171875 66.81396484375Q205.8072265625 68.154296875 204.737890625 68.9599609375Q203.6685546875 69.765625 201.6470703125 70.1171875Q199.6255859375 70.46875 196.3296875 70.46875H189.47421875Q186.4712890625 70.46875 184.43515625 70.205078125Q182.3990234375 69.94140625 181.19052734375 69.14306640625Q179.98203125 68.3447265625 179.4546875 66.7626953125Q178.92734375 65.1806640625 178.92734375 62.5439453125H181.73984375Q181.73984375 64.609375 182.0767578125 65.7373046875Q182.413671875 66.865234375 183.25595703125 67.35595703125Q184.0982421875 67.8466796875 185.61435546875 67.94189453125Q187.13046875 68.037109375 189.47421875 68.037109375H196.183203125Q198.8052734375 68.037109375 200.3287109375 67.86865234375Q201.8521484375 67.7001953125 202.5845703125 67.22412109375Q203.3169921875 66.748046875 203.52939453125 65.8544921875Q203.741796875 64.9609375 203.741796875 63.49609375ZM215.36855468750002 70.0V47.5H218.18105468750002V57.34375H221.91640625000002L236.46230468750002 47.5H240.68105468750002L224.74355468750002 58.515625L241.14980468750002 70.0H236.93105468750002L221.93105468750002 59.6875H218.18105468750002V70.0ZM258.9142578125 70.0V49.84375H247.6642578125V47.5H272.9767578125V49.84375H261.7267578125V70.0ZM291.3125 70.46875Q288.0166015625 70.46875 285.892578125 70.02197265625Q283.7685546875 69.5751953125 282.57470703125 68.3740234375Q281.380859375 67.1728515625 280.90478515625 64.9169921875Q280.4287109375 62.6611328125 280.4287109375 59.04296875V58.45703125Q280.4287109375 55.46875 280.7216796875 53.43994140625Q281.0146484375 51.4111328125 281.732421875 50.13671875Q282.4501953125 48.8623046875 283.68798828125 48.1884765625Q284.92578125 47.5146484375 286.80078125 47.27294921875Q288.67578125 47.03125 291.3125 47.03125H297.2158203125Q299.8525390625 47.03125 301.7275390625 47.27294921875Q303.6025390625 47.5146484375 304.84033203125 48.1884765625Q306.078125 48.8623046875 306.7958984375 50.13671875Q307.513671875 51.4111328125 307.806640625 53.43994140625Q308.099609375 55.46875 308.099609375 58.45703125V59.04296875Q308.099609375 62.6611328125 307.62353515625 64.9169921875Q307.1474609375 67.1728515625 305.95361328125 68.3740234375Q304.759765625 69.5751953125 302.6357421875 70.02197265625Q300.51171875 70.46875 297.2158203125 70.46875ZM291.3125 68.037109375H297.2158203125Q299.310546875 68.037109375 300.74609375 67.890625Q302.181640625 67.744140625 303.08251953125 67.2607421875Q303.9833984375 66.77734375 304.45947265625 65.7958984375Q304.935546875 64.814453125 305.111328125 63.173828125Q305.287109375 61.533203125 305.287109375 59.04296875V58.45703125Q305.287109375 55.87890625 305.111328125 54.208984375Q304.935546875 52.5390625 304.45947265625 51.572265625Q303.9833984375 50.60546875 303.08251953125 50.15869140625Q302.181640625 49.7119140625 300.74609375 49.58740234375Q299.310546875 49.462890625 297.2158203125 49.462890625H291.3125Q289.2177734375 49.462890625 287.7822265625 49.58740234375Q286.3466796875 49.7119140625 285.44580078125 50.15869140625Q284.544921875 50.60546875 284.06884765625 51.572265625Q283.5927734375 52.5390625 283.4169921875 54.208984375Q283.2412109375 55.87890625 283.2412109375 58.45703125V59.04296875Q283.2412109375 61.533203125 283.4169921875 63.173828125Q283.5927734375 64.814453125 284.06884765625 65.7958984375Q284.544921875 66.77734375 285.44580078125 67.2607421875Q286.3466796875 67.744140625 287.7822265625 67.890625Q289.2177734375 68.037109375 291.3125 68.037109375ZM317.045703125 70.0V47.5H332.104296875Q335.4001953125 47.5 337.41435546875 47.822265625Q339.428515625 48.14453125 340.4685546875 48.89892578125Q341.50859375 49.6533203125 341.8748046875 50.93505859375Q342.241015625 52.216796875 342.241015625 54.12109375V54.70703125Q342.241015625 56.5234375 341.86748046875 57.79052734375Q341.4939453125 59.0576171875 340.424609375 59.833984375Q339.3552734375 60.6103515625 337.3337890625 60.96923828125Q335.3123046875 61.328125 332.01640625 61.328125H319.858203125V70.0ZM339.428515625 54.12109375Q339.428515625 52.7294921875 339.16484375 51.89453125Q338.901171875 51.0595703125 338.11015625 50.634765625Q337.319140625 50.2099609375 335.7517578125 50.07080078125Q334.184375 49.931640625 331.5623046875 49.931640625H319.858203125V58.896484375H331.5623046875Q334.184375 58.896484375 335.7517578125 58.72802734375Q337.319140625 58.5595703125 338.11015625 58.11279296875Q338.901171875 57.666015625 339.16484375 56.83837890625Q339.428515625 56.0107421875 339.428515625 54.70703125Z" fill="#cfdaf7" opacity="1"/><path d="M113.7880859375 102.0V95.953125H110.4130859375V95.25H118.0068359375V95.953125H114.6318359375V102.0ZM121.26125 102.0V95.25H122.105V98.203125H128.29250000000002V95.25H129.13625000000002V102.0H128.29250000000002V98.90625H122.105V102.0ZM132.821328125 102.0V95.25H133.665078125V102.0ZM137.332578125 102.0V95.25H138.211484375L144.99224609375 100.95849609375H145.00103515625V95.25H145.84478515625V102.0H144.96587890625L138.1851171875 96.2431640625H138.176328125V102.0ZM149.23103515625002 98.712890625V98.537109375Q149.23103515625002 97.640625 149.31892578125002 97.031982421875Q149.40681640625002 96.42333984375 149.62214843750002 96.041015625Q149.83748046875002 95.65869140625 150.20881835937502 95.45654296875Q150.58015625000002 95.25439453125 151.14265625000002 95.181884765625Q151.70515625000002 95.109375 152.49617187500002 95.109375H154.14851562500002Q155.18562500000002 95.109375 155.83381835937502 95.1884765625Q156.48201171875002 95.267578125 156.83137695312502 95.49169921875Q157.18074218750002 95.7158203125 157.31257812500002 96.144287109375Q157.44441406250002 96.57275390625 157.44441406250002 97.26708984375H156.60066406250002Q156.60066406250002 96.744140625 156.50837890625002 96.451904296875Q156.41609375000002 96.15966796875 156.16121093750002 96.030029296875Q155.90632812500002 95.900390625 155.42073242187502 95.86962890625Q154.93513671875002 95.8388671875 154.14851562500002 95.8388671875H152.49617187500002Q151.86775390625002 95.8388671875 151.43708984375002 95.876220703125Q151.00642578125002 95.91357421875 150.73616210937502 96.047607421875Q150.46589843750002 96.181640625 150.32307617187502 96.4716796875Q150.18025390625002 96.76171875 150.12751953125002 97.2626953125Q150.07478515625002 97.763671875 150.07478515625002 98.537109375V98.712890625Q150.07478515625002 99.4599609375 150.12751953125002 99.9521484375Q150.18025390625002 100.4443359375 150.32307617187502 100.73876953125Q150.46589843750002 101.033203125 150.73616210937502 101.17822265625Q151.00642578125002 101.3232421875 151.43708984375002 101.3671875Q151.86775390625002 101.4111328125 152.49617187500002 101.4111328125H154.44294921875002Q155.16804687500002 101.4111328125 155.61189453125002 101.351806640625Q156.05574218750002 101.29248046875 156.28645507812502 101.096923828125Q156.51716796875002 100.9013671875 156.59626953125002 100.499267578125Q156.67537109375002 100.09716796875 156.67537109375002 99.41162109375V99.15234375H153.44539062500002V98.44921875H157.51912109375002V99.41162109375Q157.51912109375002 100.2685546875 157.37410156250002 100.8046875Q157.22908203125002 101.3408203125 156.88411132812502 101.633056640625Q156.53914062500002 101.92529296875 155.94368164062502 102.032958984375Q155.34822265625002 102.140625 154.44294921875002 102.140625H152.49617187500002Q151.50740234375002 102.140625 150.87019531250002 102.006591796875Q150.23298828125002 101.87255859375 149.87483398437502 101.51220703125Q149.51667968750002 101.15185546875 149.37385742187502 100.47509765625Q149.23103515625002 99.79833984375 149.23103515625002 98.712890625ZM168.24423828125 100.048828125Q168.24423828125 99.65771484375 168.18271484375 99.43359375Q168.12119140625 99.20947265625 167.905859375 99.101806640625Q167.69052734375 98.994140625 167.237890625 98.961181640625Q166.78525390625 98.92822265625 165.9986328125 98.9150390625L163.5552734375 98.8798828125Q162.65 98.86669921875 162.10068359375 98.77001953125Q161.5513671875 98.67333984375 161.2701171875 98.464599609375Q160.9888671875 98.255859375 160.894384765625 97.904296875Q160.79990234375 97.552734375 160.79990234375 97.025390625Q160.79990234375 96.44970703125 160.929541015625 96.076171875Q161.0591796875 95.70263671875 161.399755859375 95.49169921875Q161.74033203125 95.28076171875 162.36435546875 95.195068359375Q162.98837890625 95.109375 163.9771484375 95.109375H165.8580078125Q166.7544921875 95.109375 167.3521484375 95.16650390625Q167.9498046875 95.2236328125 168.3013671875 95.43017578125Q168.6529296875 95.63671875 168.804541015625 96.07177734375Q168.95615234375 96.5068359375 168.95615234375 97.26708984375H168.11240234375Q168.11240234375 96.67822265625 168.000341796875 96.377197265625Q167.88828125 96.076171875 167.631201171875 95.96630859375Q167.37412109375 95.8564453125 166.9390625 95.84765625Q166.50400390625 95.8388671875 165.8580078125 95.8388671875H164.02109375Q163.23447265625 95.8388671875 162.762060546875 95.86962890625Q162.2896484375 95.900390625 162.04794921875 96.01025390625Q161.80625 96.1201171875 161.724951171875 96.36181640625Q161.64365234375 96.603515625 161.64365234375 97.025390625Q161.64365234375 97.38134765625 161.70078125 97.5966796875Q161.75791015625 97.81201171875 161.957861328125 97.924072265625Q162.1578125 98.0361328125 162.57529296875 98.077880859375Q162.9927734375 98.11962890625 163.7134765625 98.12841796875L166.3326171875 98.16357421875Q167.25546875 98.1767578125 167.806982421875 98.271240234375Q168.35849609375 98.36572265625 168.633154296875 98.57666015625Q168.9078125 98.78759765625 168.997900390625 99.145751953125Q169.08798828125 99.50390625 169.08798828125 100.048828125Q169.08798828125 100.64208984375 168.975927734375 101.044189453125Q168.8638671875 101.4462890625 168.54306640625 101.68798828125Q168.222265625 101.9296875 167.6158203125 102.03515625Q167.009375 102.140625 166.02060546875 102.140625H163.96396484375Q163.0630859375 102.140625 162.45224609375 102.0615234375Q161.84140625 101.982421875 161.478857421875 101.742919921875Q161.11630859375 101.50341796875 160.95810546875 101.02880859375Q160.79990234375 100.55419921875 160.79990234375 99.76318359375H161.64365234375Q161.64365234375 100.3828125 161.7447265625 100.72119140625Q161.84580078125 101.0595703125 162.098486328125 101.206787109375Q162.351171875 101.35400390625 162.806005859375 101.382568359375Q163.26083984375 101.4111328125 163.96396484375 101.4111328125H165.97666015625Q166.76328125 101.4111328125 167.2203125 101.360595703125Q167.67734375 101.31005859375 167.8970703125 101.167236328125Q168.116796875 101.0244140625 168.180517578125 100.75634765625Q168.24423828125 100.48828125 168.24423828125 100.048828125ZM179.93421875 102.0V95.953125H176.55921875V95.25H184.15296875V95.953125H180.77796875V102.0ZM187.40738281250003 102.0V95.25H188.25113281250003V98.203125H194.43863281250003V95.25H195.28238281250003V102.0H194.43863281250003V98.90625H188.25113281250003V102.0ZM198.40496093750002 102.0 202.34246093750002 95.25H203.46746093750002L207.40496093750002 102.0H206.42058593750002L205.57683593750002 100.453125H200.23308593750002L199.38933593750002 102.0ZM200.65496093750002 99.75H205.15496093750002L202.90496093750002 95.8125ZM213.454296875 102.0V95.953125H210.079296875V95.25H217.673046875V95.953125H214.298046875V102.0ZM225.44750000000005 102.0V95.25H226.29125000000005V101.296875H231.63500000000005V102.0ZM234.74000000000004 102.0V95.25H235.58375000000004V102.0ZM242.34500000000003 102.0 238.70632812500003 95.25H239.67312500000003L242.90750000000003 101.40234375L246.14187500000003 95.25H247.09548828125003L243.47000000000003 102.0ZM250.23125000000002 102.0V95.25H256.85820312500005V95.953125H251.07500000000002V98.203125H256.61650390625005V98.90625H251.07500000000002V101.296875H256.98125000000005V102.0ZM267.60775390624997 102.140625Q266.61898437499997 102.140625 265.98177734374997 102.006591796875Q265.34457031249997 101.87255859375 264.98641601562497 101.51220703125Q264.62826171874997 101.15185546875 264.48543945312497 100.47509765625Q264.34261718749997 99.79833984375 264.34261718749997 98.712890625V98.537109375Q264.34261718749997 97.640625 264.43050781249997 97.031982421875Q264.51839843749997 96.42333984375 264.73373046874997 96.041015625Q264.94906249999997 95.65869140625 265.32040039062497 95.45654296875Q265.69173828124997 95.25439453125 266.25423828124997 95.181884765625Q266.81673828124997 95.109375 267.60775390624997 95.109375H269.37874999999997Q270.16976562499997 95.109375 270.73226562499997 95.181884765625Q271.29476562499997 95.25439453125 271.66610351562497 95.45654296875Q272.03744140624997 95.65869140625 272.25277343749997 96.041015625Q272.46810546874997 96.42333984375 272.55599609374997 97.031982421875Q272.64388671874997 97.640625 272.64388671874997 98.537109375V98.712890625Q272.64388671874997 99.79833984375 272.50106445312497 100.47509765625Q272.35824218749997 101.15185546875 272.00008789062497 101.51220703125Q271.64193359374997 101.87255859375 271.00472656249997 102.006591796875Q270.36751953124997 102.140625 269.37874999999997 102.140625ZM267.60775390624997 101.4111328125H269.37874999999997Q270.00716796874997 101.4111328125 270.43783203124997 101.3671875Q270.86849609374997 101.3232421875 271.13875976562497 101.17822265625Q271.40902343749997 101.033203125 271.55184570312497 100.73876953125Q271.69466796874997 100.4443359375 271.74740234374997 99.9521484375Q271.80013671874997 99.4599609375 271.80013671874997 98.712890625V98.537109375Q271.80013671874997 97.763671875 271.74740234374997 97.2626953125Q271.69466796874997 96.76171875 271.55184570312497 96.4716796875Q271.40902343749997 96.181640625 271.13875976562497 96.047607421875Q270.86849609374997 95.91357421875 270.43783203124997 95.876220703125Q270.00716796874997 95.8388671875 269.37874999999997 95.8388671875H267.60775390624997Q266.97933593749997 95.8388671875 266.54867187499997 95.876220703125Q266.11800781249997 95.91357421875 265.84774414062497 96.047607421875Q265.57748046874997 96.181640625 265.43465820312497 96.4716796875Q265.29183593749997 96.76171875 265.23910156249997 97.2626953125Q265.18636718749997 97.763671875 265.18636718749997 98.537109375V98.712890625Q265.18636718749997 99.4599609375 265.23910156249997 99.9521484375Q265.29183593749997 100.4443359375 265.43465820312497 100.73876953125Q265.57748046874997 101.033203125 265.84774414062497 101.17822265625Q266.11800781249997 101.3232421875 266.54867187499997 101.3671875Q266.97933593749997 101.4111328125 267.60775390624997 101.4111328125ZM276.03013671875 102.0V95.25H276.90904296875L283.6898046875 100.95849609375H283.69859375V95.25H284.54234375V102.0H283.6634375L276.88267578125 96.2431640625H276.87388671875V102.0ZM295.69179687499997 102.0V95.953125H292.31679687499997V95.25H299.91054687499997V95.953125H296.53554687499997V102.0ZM303.1649609374999 102.0V95.25H304.0087109374999V98.203125H310.1962109374999V95.25H311.0399609374999V102.0H310.1962109374999V98.90625H304.0087109374999V102.0ZM314.72503906249995 102.0V95.25H321.35199218749995V95.953125H315.56878906249995V98.203125H321.11029296874995V98.90625H315.56878906249995V101.296875H321.47503906249995V102.0ZM331.9301562499999 102.0 328.6122851562499 95.25H329.5834765624999L332.4926562499999 101.28369140625L335.2348437499999 95.25H336.2192187499999L338.9614062499999 101.28369140625L341.5893359374999 95.25H342.5605273437499L339.5239062499999 102.0H338.3989062499999L335.7270312499999 96.09814453125L333.0551562499999 102.0ZM345.1601562499999 102.0 349.0976562499999 95.25H350.2226562499999L354.1601562499999 102.0H353.1757812499999L352.3320312499999 100.453125H346.9882812499999L346.1445312499999 102.0ZM347.4101562499999 99.75H351.9101562499999L349.6601562499999 95.8125ZM357.2651562499999 102.0V95.25H358.1089062499999V101.296875H363.4526562499999V102.0ZM366.5576562499999 102.0V95.25H367.4014062499999V101.296875H372.7451562499999V102.0ZM375.8677343749999 102.0V95.25H380.3853124999999Q381.3740820312499 95.25 381.9783300781249 95.3466796875Q382.5825781249999 95.443359375 382.8945898437499 95.669677734375Q383.2066015624999 95.89599609375 383.3164648437499 96.280517578125Q383.4263281249999 96.6650390625 383.4263281249999 97.236328125V97.412109375Q383.4263281249999 97.95703125 383.3142675781249 98.337158203125Q383.2022070312499 98.71728515625 382.8814062499999 98.9501953125Q382.5606054687499 99.18310546875 381.9541601562499 99.290771484375Q381.3477148437499 99.3984375 380.3589453124999 99.3984375H376.7114843749999V102.0ZM382.5825781249999 97.236328125Q382.5825781249999 96.81884765625 382.5034765624999 96.568359375Q382.4243749999999 96.31787109375 382.1870703124999 96.1904296875Q381.9497656249999 96.06298828125 381.4795507812499 96.021240234375Q381.0093359374999 95.9794921875 380.2227148437499 95.9794921875H376.7114843749999V98.6689453125H380.2227148437499Q381.0093359374999 98.6689453125 381.4795507812499 98.618408203125Q381.9497656249999 98.56787109375 382.1870703124999 98.433837890625Q382.4243749999999 98.2998046875 382.5034765624999 98.051513671875Q382.5825781249999 97.80322265625 382.5825781249999 97.412109375ZM386.0171679687499 102.0 389.9546679687499 95.25H391.0796679687499L395.0171679687499 102.0H394.0327929687499L393.1890429687499 100.453125H387.8452929687499L387.0015429687499 102.0ZM388.2671679687499 99.75H392.7671679687499L390.5171679687499 95.8125ZM398.1397460937499 102.0V95.25H402.6573242187499Q403.6460937499999 95.25 404.2503417968749 95.3466796875Q404.8545898437499 95.443359375 405.1666015624999 95.669677734375Q405.4786132812499 95.89599609375 405.5884765624999 96.280517578125Q405.6983398437499 96.6650390625 405.6983398437499 97.236328125V97.412109375Q405.6983398437499 97.95703125 405.5862792968749 98.337158203125Q405.4742187499999 98.71728515625 405.1534179687499 98.9501953125Q404.8326171874999 99.18310546875 404.2261718749999 99.290771484375Q403.6197265624999 99.3984375 402.6309570312499 99.3984375H398.9834960937499V102.0ZM404.8545898437499 97.236328125Q404.8545898437499 96.81884765625 404.7754882812499 96.568359375Q404.6963867187499 96.31787109375 404.4590820312499 96.1904296875Q404.2217773437499 96.06298828125 403.7515624999999 96.021240234375Q403.2813476562499 95.9794921875 402.4947265624999 95.9794921875H398.9834960937499V98.6689453125H402.4947265624999Q403.2813476562499 98.6689453125 403.7515624999999 98.618408203125Q404.2217773437499 98.56787109375 404.4590820312499 98.433837890625Q404.6963867187499 98.2998046875 404.7754882812499 98.051513671875Q404.8545898437499 97.80322265625 404.8545898437499 97.412109375ZM408.85167968749994 102.0V95.25H415.47863281249994V95.953125H409.69542968749994V98.203125H415.23693359374994V98.90625H409.69542968749994V101.296875H415.60167968749994V102.0ZM418.72425781249996 95.25H423.24183593749996Q424.23060546874996 95.25 424.83485351562496 95.337890625Q425.43910156249996 95.42578125 425.75111328124996 95.64111328125Q426.06312499999996 95.8564453125 426.17298828124996 96.22998046875Q426.28285156249996 96.603515625 426.28285156249996 97.1748046875V97.3505859375Q426.28285156249996 97.8779296875 426.15760742187496 98.258056640625Q426.03236328124996 98.63818359375 425.67640624999996 98.873291015625Q425.32044921874996 99.1083984375 424.62171874999996 99.205078125L426.08949218749996 102.0H425.24574218749996L423.80873046874996 99.2666015625Q423.72083984374996 99.27099609375 423.62635742187496 99.27099609375Q423.53187499999996 99.27099609375 423.43080078124996 99.27099609375H419.56800781249996V102.0H418.72425781249996ZM419.56800781249996 98.54150390625H423.29896484374996Q424.05042968749996 98.54150390625 424.48329101562496 98.490966796875Q424.91615234374996 98.4404296875 425.12049804687496 98.31298828125Q425.32484374999996 98.185546875 425.38197265624996 97.95263671875Q425.43910156249996 97.7197265625 425.43910156249996 97.3505859375V97.1748046875Q425.43910156249996 96.75732421875 425.35999999999996 96.515625Q425.28089843749996 96.27392578125 425.04359374999996 96.15966796875Q424.80628906249996 96.04541015625 424.33607421874996 96.012451171875Q423.86585937499996 95.9794921875 423.07923828124996 95.9794921875H419.56800781249996ZM429.57681640625 102.0V101.15625H430.42056640625V102.0Z" fill="#8189a8" opacity="1"/></svg>